<svg id="visual" viewBox="0 0 900 450" width="900" height="450" xmlns="http://www.w3.org/2000/svg" xmlns:xlink="http://www.w3.org/1999/xlink" version="1.1"><g stroke-width="1" stroke-linejoin="bevel"><path d="M448.6 231.9L463.6 211.1L431.4 218.1Z" fill="#000000" stroke="#000000"></path><path d="M463.6 211.1L471.4 169.9L431.4 218.1Z" fill="#000000" stroke="#000000"></path><path d="M431.4 218.1L434.4 290.4L448.6 231.9Z" fill="#00081d" stroke="#00081d"></path><path d="M448.6 231.9L527.8 282.4L463.6 211.1Z" fill="#001123" stroke="#001123"></path><path d="M324.9 137.6L366.2 268.1L431.4 218.1Z" fill="#001123" stroke="#001123"></path><path d="M431.4 218.1L366.2 268.1L434.4 290.4Z" fill="#001b2c" stroke="#001b2c"></path><path d="M383.2 351.4L452.6 313.4L434.4 290.4Z" fill="#000000" stroke="#000000"></path><path d="M434.4 290.4L527.8 282.4L448.6 231.9Z" fill="#002638" stroke="#002638"></path><path d="M565.8 237.9L536.6 138.6L471.4 169.9Z" fill="#002032" stroke="#002032"></path><path d="M452.6 313.4L527.8 282.4L434.4 290.4Z" fill="#000d20" stroke="#000d20"></path><path d="M565.8 237.9L471.4 169.9L463.6 211.1Z" fill="#002638" stroke="#002638"></path><path d="M527.8 282.4L565.8 237.9L463.6 211.1Z" fill="#001123" stroke="#001123"></path><path d="M387.2 80.3L363.4 118.6L471.4 169.9Z" fill="#001829" stroke="#001829"></path><path d="M471.4 169.9L363.4 118.6L431.4 218.1Z" fill="#001526" stroke="#001526"></path><path d="M536.6 138.6L523.6 102.3L471.4 169.9Z" fill="#000000" stroke="#000000"></path><path d="M654.3 330.7L572.8 273.1L654.1 371.7Z" fill="#002032" stroke="#002032"></path><path d="M527.8 282.4L572.8 273.1L565.8 237.9Z" fill="#001829" stroke="#001829"></path><path d="M363.4 118.6L324.9 137.6L431.4 218.1Z" fill="#000d20" stroke="#000d20"></path><path d="M523.6 102.3L387.2 80.3L471.4 169.9Z" fill="#000d20" stroke="#000d20"></path><path d="M363.4 118.6L302.2 80.6L324.9 137.6Z" fill="#001d2f" stroke="#001d2f"></path><path d="M356.2 362.7L383.2 351.4L366.2 268.1Z" fill="#001829" stroke="#001829"></path><path d="M366.2 268.1L383.2 351.4L434.4 290.4Z" fill="#000000" stroke="#000000"></path><path d="M452.6 313.4L440.4 369.7L527.8 282.4Z" fill="#00081d" stroke="#00081d"></path><path d="M383.2 351.4L440.4 369.7L452.6 313.4Z" fill="#001526" stroke="#001526"></path><path d="M302.2 80.6L295.2 140.9L324.9 137.6Z" fill="#002032" stroke="#002032"></path><path d="M324.9 137.6L270.9 239.1L366.2 268.1Z" fill="#00081d" stroke="#00081d"></path><path d="M536.6 138.6L556.8 83.6L523.6 102.3Z" fill="#002032" stroke="#002032"></path><path d="M523.6 102.3L417.4 20.3L387.2 80.3Z" fill="#002335" stroke="#002335"></path><path d="M592.1 74.6L556.8 83.6L536.6 138.6Z" fill="#00081d" stroke="#00081d"></path><path d="M627.1 181.9L536.6 138.6L565.8 237.9Z" fill="#001d2f" stroke="#001d2f"></path><path d="M261.9 265.4L356.2 362.7L366.2 268.1Z" fill="#000000" stroke="#000000"></path><path d="M383.2 351.4L438.6 404.7L440.4 369.7Z" fill="#001123" stroke="#001123"></path><path d="M295.2 140.9L270.9 239.1L324.9 137.6Z" fill="#002638" stroke="#002638"></path><path d="M645.3 264.4L627.1 181.9L565.8 237.9Z" fill="#000000" stroke="#000000"></path><path d="M385.4 450L438.6 404.7L383.2 351.4Z" fill="#001b2c" stroke="#001b2c"></path><path d="M440.4 369.7L533.6 450L527.8 282.4Z" fill="#000000" stroke="#000000"></path><path d="M252.7 180.6L257.9 233.9L270.9 239.1Z" fill="#001526" stroke="#001526"></path><path d="M270.9 239.1L261.9 265.4L366.2 268.1Z" fill="#000000" stroke="#000000"></path><path d="M257.9 233.9L261.9 265.4L270.9 239.1Z" fill="#002335" stroke="#002335"></path><path d="M446.4 0L417.4 20.3L523.6 102.3Z" fill="#001d2f" stroke="#001d2f"></path><path d="M387.2 80.3L302.2 80.6L363.4 118.6Z" fill="#001d2f" stroke="#001d2f"></path><path d="M186.7 70.3L252.7 180.6L295.2 140.9Z" fill="#00081d" stroke="#00081d"></path><path d="M295.2 140.9L252.7 180.6L270.9 239.1Z" fill="#001d2f" stroke="#001d2f"></path><path d="M288.2 0L302.2 80.6L387.2 80.3Z" fill="#000000" stroke="#000000"></path><path d="M627.1 181.9L592.1 74.6L536.6 138.6Z" fill="#000000" stroke="#000000"></path><path d="M515.6 0L446.4 0L523.6 102.3Z" fill="#001123" stroke="#001123"></path><path d="M227.7 208.1L245.7 234.9L257.9 233.9Z" fill="#001d2f" stroke="#001d2f"></path><path d="M257.9 233.9L245.7 234.9L261.9 265.4Z" fill="#001526" stroke="#001526"></path><path d="M663.1 282.4L645.3 264.4L654.3 330.7Z" fill="#000d20" stroke="#000d20"></path><path d="M572.8 273.1L645.3 264.4L565.8 237.9Z" fill="#001526" stroke="#001526"></path><path d="M515.6 0L523.6 102.3L556.8 83.6Z" fill="#000d20" stroke="#000d20"></path><path d="M288.2 0L283.9 70.3L302.2 80.6Z" fill="#002032" stroke="#002032"></path><path d="M288.2 0L387.2 80.3L417.4 20.3Z" fill="#002032" stroke="#002032"></path><path d="M302.2 80.6L283.9 70.3L295.2 140.9Z" fill="#002638" stroke="#002638"></path><path d="M136.5 198.1L227.7 208.1L252.7 180.6Z" fill="#002335" stroke="#002335"></path><path d="M252.7 180.6L227.7 208.1L257.9 233.9Z" fill="#000000" stroke="#000000"></path><path d="M245.7 234.9L207.7 266.4L261.9 265.4Z" fill="#002335" stroke="#002335"></path><path d="M654.3 330.7L645.3 264.4L572.8 273.1Z" fill="#002638" stroke="#002638"></path><path d="M645.3 264.4L674.1 262.1L627.1 181.9Z" fill="#002335" stroke="#002335"></path><path d="M646.3 80.3L595.1 39.3L592.1 74.6Z" fill="#000000" stroke="#000000"></path><path d="M530.8 0L515.6 0L556.8 83.6Z" fill="#001829" stroke="#001829"></path><path d="M646.3 80.3L592.1 74.6L627.1 181.9Z" fill="#001b2c" stroke="#001b2c"></path><path d="M592.1 74.6L595.1 39.3L556.8 83.6Z" fill="#001123" stroke="#001123"></path><path d="M583.8 24.3L530.8 0L556.8 83.6Z" fill="#002032" stroke="#002032"></path><path d="M663.1 282.4L674.1 262.1L645.3 264.4Z" fill="#002638" stroke="#002638"></path><path d="M595.1 39.3L583.8 24.3L556.8 83.6Z" fill="#002032" stroke="#002032"></path><path d="M654.1 371.7L572.8 273.1L602.8 428.7Z" fill="#000000" stroke="#000000"></path><path d="M750.5 248.9L708.5 233.1L744.3 304.1Z" fill="#000000" stroke="#000000"></path><path d="M730.3 170.6L646.3 80.3L627.1 181.9Z" fill="#001123" stroke="#001123"></path><path d="M595.1 39.3L676.1 0L583.8 24.3Z" fill="#002032" stroke="#002032"></path><path d="M356.2 362.7L385.4 450L383.2 351.4Z" fill="#001123" stroke="#001123"></path><path d="M438.6 404.7L533.6 450L440.4 369.7Z" fill="#002638" stroke="#002638"></path><path d="M353.2 450L385.4 450L356.2 362.7Z" fill="#000000" stroke="#000000"></path><path d="M215.7 326.7L356.2 362.7L261.9 265.4Z" fill="#001829" stroke="#001829"></path><path d="M215.7 326.7L299.9 408.7L356.2 362.7Z" fill="#00081d" stroke="#00081d"></path><path d="M227.7 208.1L207.7 266.4L245.7 234.9Z" fill="#002638" stroke="#002638"></path><path d="M385.4 450L533.6 450L438.6 404.7Z" fill="#000d20" stroke="#000d20"></path><path d="M299.9 408.7L353.2 450L356.2 362.7Z" fill="#002638" stroke="#002638"></path><path d="M207.7 266.4L215.7 326.7L261.9 265.4Z" fill="#001123" stroke="#001123"></path><path d="M602.8 428.7L572.8 273.1L527.8 282.4Z" fill="#002032" stroke="#002032"></path><path d="M708.5 233.1L674.1 262.1L744.3 304.1Z" fill="#002335" stroke="#002335"></path><path d="M674.1 262.1L663.1 282.4L744.3 304.1Z" fill="#002335" stroke="#002335"></path><path d="M674.1 262.1L708.5 233.1L627.1 181.9Z" fill="#000d20" stroke="#000d20"></path><path d="M533.6 450L602.8 428.7L527.8 282.4Z" fill="#001526" stroke="#001526"></path><path d="M227.7 208.1L184.5 248.9L207.7 266.4Z" fill="#002335" stroke="#002335"></path><path d="M207.7 266.4L185.5 315.4L215.7 326.7Z" fill="#001d2f" stroke="#001d2f"></path><path d="M136.5 198.1L184.5 248.9L227.7 208.1Z" fill="#001d2f" stroke="#001d2f"></path><path d="M533.6 450L576.1 450L602.8 428.7Z" fill="#000000" stroke="#000000"></path><path d="M446.4 0L288.2 0L417.4 20.3Z" fill="#002335" stroke="#002335"></path><path d="M283.9 70.3L186.7 70.3L295.2 140.9Z" fill="#002032" stroke="#002032"></path><path d="M288.2 0L285.9 0L283.9 70.3Z" fill="#002335" stroke="#002335"></path><path d="M184.5 248.9L185.5 315.4L207.7 266.4Z" fill="#00081d" stroke="#00081d"></path><path d="M215.7 326.7L260.9 450L299.9 408.7Z" fill="#000d20" stroke="#000d20"></path><path d="M576.1 450L607.8 450L602.8 428.7Z" fill="#001b2c" stroke="#001b2c"></path><path d="M602.8 428.7L650.3 450L654.1 371.7Z" fill="#000d20" stroke="#000d20"></path><path d="M708.5 233.1L730.3 170.6L627.1 181.9Z" fill="#002335" stroke="#002335"></path><path d="M750.5 248.9L744.3 189.9L708.5 233.1Z" fill="#000d20" stroke="#000d20"></path><path d="M708.5 233.1L744.3 189.9L730.3 170.6Z" fill="#000000" stroke="#000000"></path><path d="M222.7 0L186.7 70.3L283.9 70.3Z" fill="#002032" stroke="#002032"></path><path d="M172.5 417.7L260.9 450L215.7 326.7Z" fill="#001b2c" stroke="#001b2c"></path><path d="M299.9 408.7L260.9 450L353.2 450Z" fill="#000d20" stroke="#000d20"></path><path d="M744.3 304.1L663.1 282.4L654.3 330.7Z" fill="#002032" stroke="#002032"></path><path d="M744.3 304.1L654.3 330.7L744.5 377.4Z" fill="#001526" stroke="#001526"></path><path d="M744.5 377.4L654.3 330.7L654.1 371.7Z" fill="#001b2c" stroke="#001b2c"></path><path d="M607.8 450L650.3 450L602.8 428.7Z" fill="#001526" stroke="#001526"></path><path d="M285.9 0L222.7 0L283.9 70.3Z" fill="#000d20" stroke="#000d20"></path><path d="M186.7 70.3L136.5 198.1L252.7 180.6Z" fill="#00081d" stroke="#00081d"></path><path d="M184.5 248.9L44.2 305.4L185.5 315.4Z" fill="#001123" stroke="#001123"></path><path d="M690.3 0L676.1 0L646.3 80.3Z" fill="#001829" stroke="#001829"></path><path d="M646.3 80.3L676.1 0L595.1 39.3Z" fill="#002335" stroke="#002335"></path><path d="M583.8 24.3L676.1 0L530.8 0Z" fill="#00081d" stroke="#00081d"></path><path d="M733.5 72.6L646.3 80.3L730.3 170.6Z" fill="#00081d" stroke="#00081d"></path><path d="M802.5 79.3L733.5 72.6L730.3 170.6Z" fill="#001526" stroke="#001526"></path><path d="M802.5 79.3L730.3 170.6L744.3 189.9Z" fill="#00081d" stroke="#00081d"></path><path d="M733.5 72.6L690.3 0L646.3 80.3Z" fill="#00081d" stroke="#00081d"></path><path d="M85.2 185.9L116.5 174.6L76.2 164.6Z" fill="#001123" stroke="#001123"></path><path d="M186.7 70.3L116.5 174.6L136.5 198.1Z" fill="#002032" stroke="#002032"></path><path d="M67.2 398.7L172.5 417.7L185.5 315.4Z" fill="#001b2c" stroke="#001b2c"></path><path d="M744.3 304.1L776.8 283.1L750.5 248.9Z" fill="#002638" stroke="#002638"></path><path d="M750.5 248.9L861.8 187.9L744.3 189.9Z" fill="#001d2f" stroke="#001d2f"></path><path d="M744.5 377.4L776.8 283.1L744.3 304.1Z" fill="#001829" stroke="#001829"></path><path d="M650.3 450L744.5 377.4L654.1 371.7Z" fill="#00081d" stroke="#00081d"></path><path d="M185.5 315.4L172.5 417.7L215.7 326.7Z" fill="#002032" stroke="#002032"></path><path d="M44.2 305.4L184.5 248.9L136.5 198.1Z" fill="#000000" stroke="#000000"></path><path d="M222.7 0L181.5 0L186.7 70.3Z" fill="#001123" stroke="#001123"></path><path d="M172.5 417.7L184.7 450L260.9 450Z" fill="#001123" stroke="#001123"></path><path d="M774.8 0L739.5 0L733.5 72.6Z" fill="#001829" stroke="#001829"></path><path d="M733.5 72.6L739.5 0L690.3 0Z" fill="#00081d" stroke="#00081d"></path><path d="M76.2 164.6L116.5 174.6L114.5 43.3Z" fill="#000000" stroke="#000000"></path><path d="M116.5 174.6L85.2 185.9L136.5 198.1Z" fill="#001123" stroke="#001123"></path><path d="M114.5 43.3L116.5 174.6L186.7 70.3Z" fill="#002335" stroke="#002335"></path><path d="M85.2 185.9L44.2 305.4L136.5 198.1Z" fill="#001526" stroke="#001526"></path><path d="M172.5 417.7L102.5 450L184.7 450Z" fill="#002335" stroke="#002335"></path><path d="M181.5 0L114.5 43.3L186.7 70.3Z" fill="#000000" stroke="#000000"></path><path d="M841.8 87.3L802.5 79.3L861.8 187.9Z" fill="#002638" stroke="#002638"></path><path d="M802.5 79.3L774.8 0L733.5 72.6Z" fill="#001d2f" stroke="#001d2f"></path><path d="M862.8 368.7L833.8 281.4L776.8 283.1Z" fill="#002032" stroke="#002032"></path><path d="M776.8 283.1L833.8 281.4L750.5 248.9Z" fill="#002638" stroke="#002638"></path><path d="M650.3 450L771.5 450L744.5 377.4Z" fill="#000000" stroke="#000000"></path><path d="M744.5 377.4L862.8 368.7L776.8 283.1Z" fill="#002032" stroke="#002032"></path><path d="M771.5 450L789.5 437.7L744.5 377.4Z" fill="#000d20" stroke="#000d20"></path><path d="M10.2 255.1L44.2 305.4L85.2 185.9Z" fill="#002335" stroke="#002335"></path><path d="M861.8 187.9L802.5 79.3L744.3 189.9Z" fill="#000d20" stroke="#000d20"></path><path d="M802.5 79.3L841.8 87.3L774.8 0Z" fill="#001123" stroke="#001123"></path><path d="M882.8 172.6L861.8 187.9L900 298.1Z" fill="#001829" stroke="#001829"></path><path d="M833.8 281.4L861.8 187.9L750.5 248.9Z" fill="#001829" stroke="#001829"></path><path d="M67.2 398.7L102.5 450L172.5 417.7Z" fill="#001526" stroke="#001526"></path><path d="M44.2 305.4L67.2 398.7L185.5 315.4Z" fill="#00081d" stroke="#00081d"></path><path d="M900 298.1L861.8 187.9L833.8 281.4Z" fill="#001123" stroke="#001123"></path><path d="M861.8 187.9L882.8 172.6L841.8 87.3Z" fill="#001d2f" stroke="#001d2f"></path><path d="M0 218.9L10.2 255.1L85.2 185.9Z" fill="#000000" stroke="#000000"></path><path d="M44.2 305.4L0 365.4L67.2 398.7Z" fill="#002032" stroke="#002032"></path><path d="M0 218.9L85.2 185.9L76.2 164.6Z" fill="#002638" stroke="#002638"></path><path d="M789.5 437.7L862.8 368.7L744.5 377.4Z" fill="#001829" stroke="#001829"></path><path d="M0 86.6L0 218.9L76.2 164.6Z" fill="#000d20" stroke="#000d20"></path><path d="M0 218.9L0 279.1L10.2 255.1Z" fill="#000d20" stroke="#000d20"></path><path d="M10.2 255.1L0 279.1L44.2 305.4Z" fill="#002335" stroke="#002335"></path><path d="M900 298.1L900 148.9L882.8 172.6Z" fill="#000000" stroke="#000000"></path><path d="M882.8 172.6L900 142.6L841.8 87.3Z" fill="#002638" stroke="#002638"></path><path d="M841.8 87.3L900 0L774.8 0Z" fill="#002335" stroke="#002335"></path><path d="M900 148.9L900 142.6L882.8 172.6Z" fill="#000000" stroke="#000000"></path><path d="M862.8 368.7L900 298.1L833.8 281.4Z" fill="#001d2f" stroke="#001d2f"></path><path d="M18.2 0L10.2 64.3L114.5 43.3Z" fill="#002032" stroke="#002032"></path><path d="M114.5 43.3L10.2 64.3L76.2 164.6Z" fill="#000d20" stroke="#000d20"></path><path d="M10.2 64.3L0 86.6L76.2 164.6Z" fill="#002638" stroke="#002638"></path><path d="M10.2 64.3L0 71.3L0 86.6Z" fill="#000d20" stroke="#000d20"></path><path d="M900 142.6L900 83.3L841.8 87.3Z" fill="#000000" stroke="#000000"></path><path d="M0 279.1L0 365.4L44.2 305.4Z" fill="#001b2c" stroke="#001b2c"></path><path d="M67.2 398.7L35.2 450L102.5 450Z" fill="#002335" stroke="#002335"></path><path d="M0 434.7L35.2 450L67.2 398.7Z" fill="#000000" stroke="#000000"></path><path d="M900 416.7L900 369.4L862.8 368.7Z" fill="#002638" stroke="#002638"></path><path d="M862.8 368.7L900 369.4L900 298.1Z" fill="#002335" stroke="#002335"></path><path d="M874.8 450L862.8 368.7L789.5 437.7Z" fill="#000000" stroke="#000000"></path><path d="M181.5 0L18.2 0L114.5 43.3Z" fill="#001b2c" stroke="#001b2c"></path><path d="M10.2 64.3L0 0L0 71.3Z" fill="#002032" stroke="#002032"></path><path d="M771.5 450L874.8 450L789.5 437.7Z" fill="#001526" stroke="#001526"></path><path d="M874.8 450L900 416.7L862.8 368.7Z" fill="#001123" stroke="#001123"></path><path d="M18.2 0L0 0L10.2 64.3Z" fill="#002032" stroke="#002032"></path><path d="M0 365.4L0 434.7L67.2 398.7Z" fill="#002335" stroke="#002335"></path><path d="M900 83.3L900 0L841.8 87.3Z" fill="#001829" stroke="#001829"></path><path d="M0 434.7L0 450L35.2 450Z" fill="#000000" stroke="#000000"></path><path d="M874.8 450L900 450L900 416.7Z" fill="#000000" stroke="#000000"></path></g></svg>