<svg id="visual" viewBox="0 0 960 540" width="960" height="540" xmlns="http://www.w3.org/2000/svg" xmlns:xlink="http://www.w3.org/1999/xlink" version="1.1"><rect x="0" y="0" width="960" height="540" fill="#000000"></rect><path d="M0 312L32 310.8C64 309.7 128 307.3 192 295.3C256 283.3 320 261.7 384 273.8C448 286 512 332 576 358.2C640 384.3 704 390.7 768 357.8C832 325 896 253 928 217L960 181L960 541L928 541C896 541 832 541 768 541C704 541 640 541 576 541C512 541 448 541 384 541C320 541 256 541 192 541C128 541 64 541 32 541L0 541Z" fill="#adc0e8"></path><path d="M0 256L32 274.5C64 293 128 330 192 339C256 348 320 329 384 331.2C448 333.3 512 356.7 576 354.2C640 351.7 704 323.3 768 316.5C832 309.7 896 324.3 928 331.7L960 339L960 541L928 541C896 541 832 541 768 541C704 541 640 541 576 541C512 541 448 541 384 541C320 541 256 541 192 541C128 541 64 541 32 541L0 541Z" fill="#8aa1d6"></path><path d="M0 414L32 408.3C64 402.7 128 391.3 192 369.3C256 347.3 320 314.7 384 310.8C448 307 512 332 576 340.5C640 349 704 341 768 356.5C832 372 896 411 928 430.5L960 450L960 541L928 541C896 541 832 541 768 541C704 541 640 541 576 541C512 541 448 541 384 541C320 541 256 541 192 541C128 541 64 541 32 541L0 541Z" fill="#6982c3"></path><path d="M0 371L32 389.3C64 407.7 128 444.3 192 450.5C256 456.7 320 432.3 384 429C448 425.7 512 443.3 576 435C640 426.7 704 392.3 768 396C832 399.7 896 441.3 928 462.2L960 483L960 541L928 541C896 541 832 541 768 541C704 541 640 541 576 541C512 541 448 541 384 541C320 541 256 541 192 541C128 541 64 541 32 541L0 541Z" fill="#4864b0"></path><path d="M0 506L32 505.3C64 504.7 128 503.3 192 491.5C256 479.7 320 457.3 384 461.2C448 465 512 495 576 501C640 507 704 489 768 477C832 465 896 459 928 456L960 453L960 541L928 541C896 541 832 541 768 541C704 541 640 541 576 541C512 541 448 541 384 541C320 541 256 541 192 541C128 541 64 541 32 541L0 541Z" fill="#21489c"></path></svg>